<?xml version="1.0" encoding="utf-8"?>
<!DOCTYPE svg PUBLIC "-//W3C//DTD SVG 1.1//EN" "http://www.w3.org/Graphics/SVG/1.1/DTD/svg11.dtd">
<svg version="1.1" x="0px" y="0px" viewBox="0 -8 44 44" enable-background="new 0 0 44 32" xml:space="preserve"
    xmlns="http://www.w3.org/2000/svg"
    xmlns:xlink="http://www.w3.org/1999/xlink">
    <title>Stilling - Hoved</title>
    <g>
        <path fill="#F26C4F" d="M43.7,30.1l-7.4-7.4c1.5-1.9,2.4-4.3,2.4-6.9c0-5.6-4.3-10.3-9.8-10.8c0,0,0,0,0-0.1c0-0.7-0.5-0.9-1-1
                        c0,0-4,0-4,0V0.9C24,0.4,23.5,0,23,0H0.9C0.4,0,0,0.4,0,0.9V29c0,1.7,1.3,3,3,3h23c1.8,0,3-1.3,3-3c0,0,0-0.9,0-2.3
                        c2.2-0.2,4.1-1.1,5.7-2.4l7.4,7.4c0.4,0.4,1,0.4,1.3,0l0.3-0.3C44.1,31.1,44.1,30.5,43.7,30.1z M4,5h3.4v3.4H4V5z M4,12h13.7
                        c-0.2,0.6-0.4,1.3-0.6,2H4V12z M4,16h13c0,0.7,0.1,1.4,0.2,2H4V16z M4,20h13.8c0.3,0.7,0.6,1.4,1.1,2H4V20z M20,26H4v-2h16V26z
                         M27,28.5c0,0.8-0.7,1.5-1.5,1.5S24,29.3,24,28.5V26c0.9,0.4,1.9,0.6,3,0.7V28.5z M27.9,25c-5,0-9.1-4.1-9.1-9.1s4.1-9.1,9.1-9.1
                        s9.1,4.1,9.1,9.1S32.9,25,27.9,25z" />
        <path fill="#F26C4F" d="M28.3,8.4c-0.6,0-1,0.4-1,1s0.4,1,1,1c2.8,0,5.1,2.3,5.1,5.1c0,0.6,0.4,1,1,1s1-0.4,1-1
                        C35.4,11.5,32.2,8.4,28.3,8.4z" />
    </g>
</svg>