<?xml version="1.0" encoding="utf-8"?>
<!DOCTYPE svg PUBLIC "-//W3C//DTD SVG 1.1//EN" "http://www.w3.org/Graphics/SVG/1.1/DTD/svg11.dtd">
<svg version="1.1" viewBox="-457 464.62 100 100" enable-background="new -457 464.62 100 100" xml:space="preserve"
    xmlns="http://www.w3.org/2000/svg"
    xmlns:xlink="http://www.w3.org/1999/xlink">
    <g class="companyicon" fill="#6a8a14">
        <path d="M-361.709,509.211c0,0-3.29,0.553-7.058-3.182c-2.482-2.462-2.495-5.906-2.07-8.448
                        c-8.672-8.6-16.713-19.709-44.908-13.998l0.004,1.436c0,0,21.549,2.129,19.368,19.372l-15.526,15.473
                        c-2.638-0.682-5.428,1.847-12.732,9.125l-4.655,4.639c-4.157,4.14-9.875,9.153-13.517,12.09c-3.639,2.94-6.763,5.008-1.198,10.532
                        l4.086,4.045c5.566,5.521,7.648,2.412,10.59-1.215c2.944-3.623,7.973-9.326,12.13-13.469l4.654-4.639
                        c7.125-7.1,9.711-9.917,9.19-12.483l15.984-15.931c2.33-0.664,7.274-1.555,10.456,1.596c3.769,3.734,3.216,7.006,3.216,7.006
                        l4.706,4.668L-357,513.877L-361.709,509.211z" />
        <g>
            <path d="M-379.544,545.46l-17.931-17.779c-0.573,3.359-4.043,7.006-10.163,13.105l-1.748,1.742l16.433,16.293
                            c2.288,2.268,5.237,3.428,8.046,3.428c2.37,0,4.64-0.826,6.327-2.506C-374.892,556.067-375.328,549.639-379.544,545.46z
                             M-381.638,556.758c-1.349,1.342-4.9,2.4-7.604-0.305l-14.018-13.935c2.987-2.997,5.285-5.403,6.94-7.606l14.338,14.252
                            C-379.138,552.008-380.303,555.424-381.638,556.758z" />
            <path d="M-420.962,504.4c1.445-5.956-0.181-12.497-4.864-17.145c-3.576-3.541-8.25-5.311-12.922-5.311
                            c-1.458,0-2.915,0.172-4.338,0.516l7.195,7.13c2.257,2.244,2.265,5.871,0.013,8.117l-5.259,5.24
                            c-1.127,1.124-2.606,1.687-4.084,1.687c-1.475,0-2.951-0.56-4.079-1.68l-7.194-7.13c-1.438,5.957,0.184,12.493,4.868,17.141
                            c3.574,3.541,8.249,5.311,12.92,5.311c1.458,0,2.915-0.173,4.338-0.518l8.164,8.094l1.745-1.738
                            c6.121-6.1,9.779-9.559,13.161-10.137L-420.962,504.4z M-426.211,519.762l-6.827-6.775l-2.352,0.573
                            c-1.079,0.261-2.197,0.394-3.317,0.394c-3.727,0-7.235-1.442-9.879-4.06c-0.759-0.753-1.42-1.58-1.978-2.46
                            c1.588,0.991,3.425,1.521,5.342,1.521c2.695,0,5.229-1.046,7.135-2.947l5.259-5.239c1.908-1.903,2.958-4.43,2.956-7.117
                            c-0.001-1.91-0.535-3.739-1.529-5.322c0.908,0.559,1.757,1.225,2.532,1.993c3.469,3.443,4.856,8.325,3.707,13.057l-0.575,2.373
                            l7.154,7.088C-420.792,514.494-423.205,516.785-426.211,519.762z" />
            <circle cx="-385.5" cy="552.995" r="3.375" />
        </g>
    </g>
</svg>