<?xml version="1.0" encoding="utf-8"?>
<!DOCTYPE svg PUBLIC "-//W3C//DTD SVG 1.1//EN" "http://www.w3.org/Graphics/SVG/1.1/DTD/svg11.dtd">
<svg version="1.1" x="0px" y="0px" viewBox="0 -8 44 44" enable-background="new 0 0 44 32" xml:space="preserve"
    xmlns="http://www.w3.org/2000/svg"
    xmlns:xlink="http://www.w3.org/1999/xlink">
    <title>Eiendom - Hoved</title>
    <g>
        <path fill="#F26C4F" d="M43.6,30l-7.4-7.4c1.5-1.9,2.4-4.2,2.4-6.8c0-6-4.9-10.8-10.8-10.8c-1.3,0-2.5,0.2-3.7,0.6l-6.4-5.4
                        c-0.4-0.3-1.1-0.3-1.5,0L0.9,12.9c-0.4,0.3-0.9,1-0.9,2v15.9c0,0.6,0.4,1,0.9,1h32c0.5,0,0.9-0.5,0.9-1l0-6.1
                        c0.3-0.2,0.5-0.4,0.8-0.6l7.4,7.4c0.4,0.4,1,0.4,1.3,0l0.3-0.3C43.9,31,43.9,30.4,43.6,30z M12.9,24.9H5v-8h8V24.9z M27.8,24.9
                        c-5,0-9.1-4.1-9.1-9.1c0-5,4.1-9.1,9.1-9.1c5,0,9.1,4.1,9.1,9.1C36.9,20.9,32.8,24.9,27.8,24.9z" />
        <path fill="#F26C4F" d="M28.2,8.3c-0.6,0-1,0.4-1,1s0.4,1,1,1c2.8,0,5.1,2.3,5.1,5.1c0,0.6,0.4,1,1,1s1-0.4,1-1
                        C35.3,11.5,32.1,8.3,28.2,8.3z" />
    </g>
</svg>