<?xml version="1.0" encoding="UTF-8"?>
<svg width="137px" height="137px" viewBox="0 0 137 137" version="1.1" xmlns="http://www.w3.org/2000/svg" xmlns:xlink="http://www.w3.org/1999/xlink">
    <defs>
        <polygon id="path-1" points="0 0.190146575 134.990347 0.190146575 134.990347 67.6849315 0 67.6849315"></polygon>
        <polygon id="path-3" points="0.286468261 0.0702739726 10.5365193 0.0702739726 10.5365193 15.244126 0.286468261 15.244126"></polygon>
    </defs>
    <g id="Symbols" stroke="none" stroke-width="1" fill="none" fill-rule="evenodd">
        <g id="redaktøransvar">
            <g id="Group-37" transform="translate(1.000000, 1.000000)">
                <path d="M39.4393808,113.5485 C39.4393808,113.5485 50.7997233,121.489829 67.4949699,121.489829 C84.1905863,121.489829 95.5509288,113.5485 95.5509288,113.5485 L95.5509288,82.5721027 L69.004011,29.6820616 L69.004011,76.9401986 L71.6932849,82.0247055 L67.4949699,88.986637 L63.2970247,82.0247055 L65.9866685,76.9401986 L65.9866685,29.6820616 L39.4393808,82.0247055 L39.4393808,113.5485 Z" id="Fill-1" fill="#FEFEFE"></path>
                <g id="Group-5" transform="translate(0.000000, 67.614658)">
                    <mask id="mask-2" fill="white">
                        <use xlink:href="#path-1"></use>
                    </mask>
                    <g id="Clip-4"></g>
                    <path d="M67.4951548,67.6849685 C30.2780589,67.6849685 -3.69863014e-05,37.4072425 -3.69863014e-05,0.190146575 L2.24466164,0.190146575 C2.24466164,36.1689411 31.5159904,65.4402699 67.4951548,65.4402699 C103.474319,65.4402699 132.745648,36.1689411 132.745648,0.190146575 L134.990347,0.190146575 C134.990347,37.4072425 104.711881,67.6849685 67.4951548,67.6849685" id="Fill-3" fill="#FEFEFE" mask="url(#mask-2)"></path>
                </g>
                <path d="M67.4951548,121.77037 C37.7381959,121.77037 13.5291822,97.5613562 13.5291822,67.8047671 L14.0906342,67.8047671 C14.0906342,97.2517808 38.0477712,121.208918 67.4951548,121.208918 C96.9425384,121.208918 120.900045,97.2517808 120.900045,67.8047671 L121.460758,67.8047671 C121.460758,97.5613562 97.2521137,121.77037 67.4951548,121.77037" id="Fill-6" fill="#FEFEFE"></path>
                <path d="M7.78702192,56.5108521 C8.07292603,55.0920575 7.36241918,54.2003178 6.06013151,53.9384548 C4.62136438,53.6488521 3.76513151,54.2850164 3.47959726,55.7045507 L3.28393973,56.6761808 L7.57952877,57.5412904 L7.78702192,56.5108521 Z M0.368679452,58.7991945 L1.14354247,54.9511397 C1.42907671,53.5316055 2.07596712,52.4283041 3.0331726,51.7917699 C3.8971726,51.2173726 5.04892603,51.024674 6.44811781,51.3061397 L6.56499452,51.329811 C8.50862466,51.721126 9.53758356,52.8384822 9.97550137,54.1807151 L15.7242822,52.8499479 L15.1413781,55.7463452 L10.1234466,56.8600027 L9.89265205,58.0069479 L14.4996658,58.9341945 L13.9752,61.5391397 L0.368679452,58.7991945 Z" id="Fill-8" fill="#FEFEFE"></path>
                <polygon id="Fill-10" fill="#FEFEFE" points="3.90039041 44.8511425 6.73391096 38.2154301 8.99414384 39.1804027 7.19623973 43.391663 10.1495959 44.652526 11.7374178 40.9335534 13.9980205 41.898526 12.4101986 45.6178685 15.4364178 46.9098 17.2657603 42.6253068 19.526363 43.5910192 16.661774 50.2995945"></polygon>
                <path d="M13.1198548,32.1329219 L20.5115671,37.3380041 L20.9339507,36.7384562 C21.9958274,35.2305247 21.6285534,33.4444562 19.0998,31.6639356 L18.9378,31.5496479 C16.4090466,29.7691274 14.6037452,30.0258123 13.5422384,31.533374 L13.1198548,32.1329219 Z M9.6128137,32.9122233 L11.5875123,30.1079219 C13.6764986,27.1419904 16.9793753,26.8246479 20.4642247,29.278689 L20.7238685,29.4610315 C24.1924438,31.9039767 25.0231562,35.1317712 22.9345397,38.0984425 L20.9594712,40.9027438 L9.6128137,32.9122233 Z" id="Fill-12" fill="#FEFEFE"></path>
                <path d="M28.4290767,23.9636096 L24.5155562,21.3649521 L26.7336247,25.5170342 L28.4290767,23.9636096 Z M20.7651452,19.2086507 L22.7383644,17.4003904 L35.0037616,25.0650616 L33.0009534,26.8995822 L30.4903233,25.2744041 L27.8591178,27.6851712 L29.2738438,30.3145274 L27.3442685,32.0824726 L20.7651452,19.2086507 Z" id="Fill-14" fill="#FEFEFE"></path>
                <polygon id="Fill-16" fill="#FEFEFE" points="30.1740164 11.6432877 32.475674 10.316589 35.4257014 15.4354932 35.3443315 8.66367123 38.023989 7.11949315 37.861989 13.9856301 45.0561945 19.0841918 42.4109342 20.6087671 37.4703041 17.1176301 37.4447836 18.9399452 39.4050575 22.3412055 37.1030301 23.6675342"></polygon>
                <polygon id="Fill-18" fill="#FEFEFE" points="45.4343055 6.89176849 42.9358808 7.73320685 42.1384562 5.36608356 49.6533329 2.8347411 50.4507575 5.20223425 47.951963 6.0436726 51.5843877 16.8277685 49.0667301 17.6754945"></polygon>
                <g id="Group-22" transform="translate(54.739726, 0.299589)">
                    <mask id="mask-4" fill="white">
                        <use xlink:href="#path-3"></use>
                    </mask>
                    <g id="Clip-21"></g>
                    <path d="M7.78465479,7.55097534 L7.74433973,7.21624932 C7.65187397,6.44878356 7.51206575,5.78672877 7.32528493,5.23045479 L4.49102466,11.8606192 C4.94151781,12.2855918 5.44009315,12.4450027 5.99081918,12.3784274 C7.36818904,12.2127288 8.15932603,10.6600438 7.78465479,7.55097534 L7.78465479,7.55097534 Z M3.47833973,10.0860164 L6.31296986,3.45622192 C5.88429863,3.04863288 5.36427123,2.87146849 4.83277808,2.93545479 C3.45503836,3.10189315 2.66427123,4.65420822 3.03894247,7.76364658 L3.07925753,8.09800274 C3.17172329,8.86546849 3.31153151,9.52752329 3.47833973,10.0860164 L3.47833973,10.0860164 Z M9.55814795,0.0701260274 L8.63903836,2.21718082 C9.52670959,3.28793425 10.1539973,4.84949589 10.3910795,6.81753699 L10.4458192,7.27024932 C10.9654767,11.5795233 9.21010685,14.4063863 6.25823014,14.7621945 C5.25479178,14.8831397 4.35306575,14.6922904 3.54121644,14.2510438 L3.19391507,15.0114822 L1.26581918,15.244126 L2.1845589,13.0970712 C1.29688767,12.0263178 0.671819178,10.4843589 0.432517808,8.49708493 L0.377778082,8.0443726 C-0.14409863,3.71512603 1.61349041,0.907865753 4.56536712,0.552427397 C5.54920274,0.43370137 6.47016164,0.622331507 7.28423014,1.08318082 L7.62968219,0.302769863 L9.55814795,0.0701260274 Z" id="Fill-20" fill="#FEFEFE" mask="url(#mask-4)"></path>
                </g>
                <path d="M73.4494315,7.68316438 C74.8893082,7.83184932 75.7085548,7.03960274 75.8450342,5.71808219 C75.9959384,4.25860274 75.2806233,3.46746575 73.8411164,3.31841096 L72.8550616,3.21669863 L72.4045685,7.57479452 L73.4494315,7.68316438 Z M70.4627877,0.517808219 L74.3674315,0.921328767 C75.8073082,1.07038356 76.9675685,1.60890411 77.6925,2.5010137 C78.3467877,3.30620548 78.6489658,4.43317808 78.5017603,5.85308219 L78.4899247,5.97180822 C78.2857603,7.94391781 77.2719658,9.07458904 75.9781849,9.63863014 L77.8511712,15.2335479 L74.9133493,14.9298904 L73.3251575,10.0417808 L72.1619384,9.92194521 L71.6788973,14.5955342 L69.036226,14.3225753 L70.4627877,0.517808219 Z" id="Fill-23" fill="#FEFEFE"></path>
                <path d="M87.2575274,12.5793 L87.6314589,7.89609452 L85.0764452,11.8499301 L87.2575274,12.5793 Z M87.6972945,3.56980685 L90.2364041,4.4182726 L89.4844726,18.8636425 L86.9087466,18.0022315 L87.1114315,15.0178068 L83.7264452,13.8867658 L82.1131027,16.3996151 L79.6309521,15.5696425 L87.6972945,3.56980685 Z" id="Fill-25" fill="#FEFEFE"></path>
                <polygon id="Fill-27" fill="#FEFEFE" points="98.9689068 8.16010274 101.06529 9.44463699 100.470921 17.9640616 104.428825 11.5066233 106.643195 12.8640205 99.3905507 24.6966781 97.429537 23.4946233 98.0542356 14.6223493 93.9306329 21.3497877 91.7166329 19.9923904"></polygon>
                <path d="M102.44684,24.9117534 L105.015908,24.5071233 C105.052155,25.3330274 105.099497,26.5802055 105.948333,27.3850274 C106.652922,28.0533699 107.506936,27.9886438 108.052114,27.413137 C108.475237,26.9670822 108.572511,26.4037808 108.076895,24.6498904 C107.411511,22.2975616 107.270223,20.6605479 108.606538,19.2506301 L108.634278,19.2221507 C110.243922,17.5244795 112.57184,17.5466712 114.370484,19.2517397 C115.233374,20.0702466 115.983456,21.3825205 115.984566,22.9951233 L113.399963,23.3586986 C113.4081,22.6293288 113.297511,21.6221918 112.592922,20.9538493 C112.017045,20.4083014 111.258086,20.3443151 110.753593,20.8765479 C110.30347,21.3514521 110.206196,21.9147534 110.783182,24.1010137 C111.374963,26.3290685 111.372374,27.8014932 110.103374,29.1396575 L110.076004,29.168137 C108.43973,30.8946575 105.9831,30.8055205 104.285799,29.1958767 C103.278292,28.2412603 102.497881,26.8453973 102.44684,24.9117534" id="Fill-29" fill="#FEFEFE"></path>
                <polygon id="Fill-31" fill="#FEFEFE" points="119.811982 25.0481219 121.431982 27.3264781 115.089941 34.4888753 123.937434 30.8490534 125.511571 33.0626836 112.048927 38.1845466 110.55579 36.0837247"></polygon>
                <path d="M121.938695,45.3495699 L125.65064,42.4687068 L121.00701,43.2465288 L121.938695,45.3495699 Z M128.891379,39.6015288 L129.975448,42.0489123 L118.797448,51.2303918 L117.697475,48.7471315 L120.038708,46.8852411 L118.592914,43.6223096 L115.649174,44.1242137 L114.589147,41.7315699 L128.891379,39.6015288 Z" id="Fill-33" fill="#FEFEFE"></path>
                <path d="M127.085005,55.9266164 C127.367951,57.345411 128.366951,57.8939178 129.668868,57.634274 C131.107636,57.3472603 131.652444,56.4296301 131.368759,55.0108356 L131.174951,54.0392055 L126.879362,54.8961781 L127.085005,55.9266164 Z M133.045718,50.957137 L133.813923,54.8059315 C134.097608,56.224726 133.925252,57.4922466 133.287608,58.4479726 C132.712101,59.3104932 131.724567,59.9322329 130.325005,60.2114795 L130.208129,60.2351507 C128.264129,60.6227671 126.88491,59.9884521 125.964321,58.9195479 L121.173485,62.3614932 L120.595759,59.4650959 L124.794814,56.5047123 L124.565868,55.3577671 L119.959225,56.2772466 L119.439197,53.6726712 L133.045718,50.957137 Z" id="Fill-35" fill="#FEFEFE"></path>
            </g>
        </g>
    </g>
</svg>