<?xml version="1.0" encoding="utf-8"?>
<!-- Generator: Adobe Illustrator 18.1.1, SVG Export Plug-In . SVG Version: 6.00 Build 0)  -->
<!DOCTYPE svg PUBLIC "-//W3C//DTD SVG 1.1//EN" "http://www.w3.org/Graphics/SVG/1.1/DTD/svg11.dtd">
<svg version="1.1" id="Layer_1" xmlns="http://www.w3.org/2000/svg" xmlns:xlink="http://www.w3.org/1999/xlink" x="0px" y="0px"
	 preserveAspectRatio="xMinYMid meet" viewBox="0 0 2467 400" enable-background="new 0 0 2467 400" xml:space="preserve">
<path fill-rule="evenodd" clip-rule="evenodd" fill="#FFFFFF" d="M283.71,332.97c-9.98-7.23-17.82-13.37-22.24-24.04l-1.75-179.65
	c0.87-16.87,4.42-32.93,10.67-46.22c2.62-4.5,10.04-12.32,8-14.24c-3.62-3.43-14.19,8.48-24.91,7.12
	c-24.35-3.11-27.31-19.71-33.79-25.84c-23.29-22.06-47.05-10.38-47.21-10.45c-6.91-3.37-6.15-23.05-6.91-26.97
	c-1.61-8.32-11.64-11.95-16.52-10.29c-8.43,2.87-8.54,8.62-7.65,11.26c3.81,5.71,9.39,6.19,12.03,2.56c3.2-4.38,4.05-6.74,7.52-1.69
	c1.25,1.86,4.29,24.11-0.44,29.17c-7.25,7.76-20.57,20.73-29.5,27.47c-2.62,1.97-6.07,0.5-8.27-1.68
	c-7.8-7.8-20.56-18.08-37.05-38.3c-2.37-2.9-5.7-2.27-8.68,0.72C58.35,50.59,42.52,68.57,16.84,76.82c-3.6,1.16,0.48,8.33,2.76,6.93
	C29.98,77.5,39.87,73.3,49.75,73.24c18.57-0.09,32.06,14.38,32.06,14.25l0.87,205.45c-6.24,11.55-21.36,9.79-33.8,10.67
	c-14.24,5.32-30.03,13.98-39.15,26.68c-6.91,9.61-8.88,24.92-7.12,37.37c2.67,15.07,14.52,27.36,28.76,30.06
	c19.6,1.71,27.5-4.62,31.57-12.52c6.35-12.32,1.3-29.88-14.76-29.13c-15.89,0.74-14.94,14.38-11.38,18.49
	c2.09,2.43,6.16,5.4,11.38,3.74c2.72-0.88,2.62-3.18-1.12-2.81c-5.02,0.51-7.1-4.7-7.1-7.83c0-4.46,5.39-7.58,9.79-7.13
	c14.49,1.51,14.12,18.7,2.7,28.44c-6.75,5.76-14.54,5.21-22.57,3.33c-9.19-2.12-19.24-18.29-18.35-32.64
	c0.55-8.86,6.01-17.07,13.32-21.37c9.15-5.38,24.91-4.44,35.6,0c30.24,15.17,60.47,47.97,101.38,29.37
	c19.62-10.69,11.47,15.15,25.73,21.73c7.28,3.35,14.7,1.54,17.87-3.12c1.86-2.72,0.96-9.01-1.75-10.67
	c-7.22-4.41-12.3,7.09-15.17,6.89c-1.63-0.11-3.6-2.56-5.32-5.96c-8.66-17.22,11.47-29.58,22.24-39.98c1.34-1.29,7.49-1,8.87,0.88
	c9.91,13.58,20.49,25.78,33.86,35.56c15.99-14.2,31.08-29.3,52.44-35.56c1.89-0.54,0.91-1.75,0.91-1.75
	C298.82,330.29,284.77,333.74,283.71,332.97L283.71,332.97z M959.05,345.6c-12.21-3.48-23.1-15.69-23.1-18.69V170.36
	c0-10,26.59-8.92,26.73-8.92c2.12-0.03,2.8-6.68,0-7.06l-26.73-3.63l0.03-97.84l-3.58,0.02c-0.04,0-3.32,34.96-12.06,63.63
	c-5.11,16.76-19.5,31.69-27.97,35.5c-3.47,1.56-9.15,2.97-9.15,2.97l8.25,7.35l-0.14,166.82c0,0.15-0.03,4.71-5.07,9.45
	c-1.39,1.3-1.21,5.29,2.51,4.57c4.1-0.79,10.11,1.56,13.56,4.57c8.67,7.56,17.18,27.09,38.06,25.33
	c16.51-1.38,30.46-16.58,35.28-30.09l0.65-1.81l-1.57,1.03C973.33,343.2,965.39,347.4,959.05,345.6L959.05,345.6z M179.5,89.62
	l0.01,241.2c6.16-0.72,10.14-1.29,19.55-9.48c1.54-1.35,3.1-2.83,4.62-4.37l0-139.65l7.99-34.66c6.64-12.45,17.63-26.57,25.86-39.79
	c3.15-5.05-0.21-2.69-2.75-1.14c-15.72,9.69-35.04,2.42-49.77-8.04C183.04,92.28,181.22,90.92,179.5,89.62L179.5,89.62z
	 M1369.96,329.56c0.01,35.14,25.12,44.94,36.09,43.49c17.39-2.31,20.47-7.96,30.17-18.03c1.53-1.57,2.9-4.51,3.82-6.17
	c1.14-2.04-2.61-5.9-4.42-4.37c-0.88,0.73-2.59,2.08-4.25,3.51c-7.94,6.86-17.13,0.45-17.12-5.79l0.14-161.38
	c0-6.52-10.39-32.15-38.18-32.15c-21.4,0-41.13,22.5-41.49,22.81l-0.33,0.29l-0.38-0.24c-0.51-0.34-35.32-24.12-36.25-24.76
	l-1.64,1.4c-12.16,10.41-15,14.6-27.04,26c-2.58,2.45-10.21,4.08-9.5,6.85c1.14,4.36,5.43,1.61,8.32,1.22
	c10.42-1.39,20.29,10.61,20.29,11.28l-0.09,140.94c0,2.22-5.83,4.55-5.41,7.52c0.48,3.27,10.73,3.4,13.37,8.87
	c2.88,5.98,15.62,21.16,28.44,22.24c16.88,1.43,29.39-9.49,40.03-23.11c1.97-2.51,2.1-4.5,0.93-5.79c-2.51-2.75-5.7,0-7.11,1.37
	c-8.12,7.92-23.96-5.23-23.96-6.98l-0.04-156.32c-0.01-0.35,7.12-7.37,12.19-6.78c8.48,0.99,23.27,10.97,23.27,20.44L1369.96,329.56
	L1369.96,329.56z M389.48,342.55l-1.89-0.99c-1.8-1.02-29.36-14.04-29.36-30.26l0.03-120.47c0,0,12.02-11.46,14.01-12.99l0.53-0.4
	l0.45,0.4c7.54,5.88,14.83,12.44,19.09,17.11c2.93,3.21,5.21,6.34,5.2,13.88l-0.03,127.97C397.53,336.86,389.37,342.5,389.48,342.55
	L389.48,342.55z M446.45,322.84c1.83,0.24,2.38,4.47,0.14,4.76c-1.49,0.19-12.45,0.84-15.95,1.83
	c-11.65,3.25-16.24,5.17-27.85,12.07c-13.3,7.9-29.26,25.03-36.38,31.49l-0.29,0.27l-0.37-0.06c-25.87-4.14-51.26-23.42-52.03-50.31
	l-0.04-112.6c0-30.81,57.02-41.99,71.98-65.21l0.98-1.51l1.68,1.43c17.94,15.18,30.73,24.2,39.7,29.37
	c6.96,4.01,10.31,10.23,10.29,21.39l-0.02,126.79C438.29,322.65,442.64,322.35,446.45,322.84L446.45,322.84z M528.93,338.73
	c0,1.75,15.28,14.78,23.41,6.86c1.4-1.38,4.59-4.12,7.1-1.38c1.17,1.3,1.03,3.28-0.94,5.8c-10.64,13.63-23.15,24.53-40.02,23.1
	c-12.82-1.07-25.56-16.26-28.44-22.24c-2.64-5.46-12.9-5.6-13.37-8.86c-0.43-2.97,5.49-4.92,5.49-7.15V190.26
	c0-0.68-9.87-12.67-20.29-11.28c-2.91,0.39-6.28,2.74-7.77-0.27c-2.08-4.18,3.24-2.43,16.64-13.8c5.31-4.53,13.97-14.24,19.66-19.94
	l1.5-1.5l1.79,1.65c13.08,10.76,25,22.06,32.35,33.1c0.44,0.65,0.69,0.79,1.29,0.21c13.67-12.93,21.18-19.8,38.45-31.37l0.72-0.48
	l0.58,0.32c2.89,1.63,16.37,10.5,22.61,25.49c7.71,18.5-18.69,34.72-32.06,47.15c-7.11,5.32,8.32,20.82-4.79,17.03
	c-2.66-0.76-7.03-7.29-5.2-12.03c3.11-8.06,12.49-17.36,7.31-27.24c-3.76-7.17-10.97-14.4-16.89-10.62
	c-4.3,2.74-9.14,8.37-9.14,8.71V338.73L528.93,338.73z M683.61,186.1c0-9.06-21.95-26.15-28.35-31.35l-0.4-0.33l-0.42,0.3
	c-2.88,2.03-7.18,6.58-7.18,9.29l0.09,148.08c0.01,9.38,13.96,25.89,29.19,30.26l0.79,0.22l0.6-0.19c2.42-0.77,5.69-3.33,5.69-6.81
	L683.61,186.1L683.61,186.1z M602.69,193.23c0-16.53,32.62-33.9,43.15-45.79l0.45-0.51l-0.36-0.5
	c-11.71-15.71-35.95-26.06-36.11-54.6c-0.13-20.49,7.11-39.16,23.1-50.73c9.8-8,29.02-7.96,39.16,0.88
	c6.68,5.82,7.72,15.75,5.32,23.11c-4.67,14.39-22.87,15.55-28.43,8.08c-4.35-5.86-3.65-11.84,0.8-15.44
	c4.48-3.6,10.41-3.11,14.32-1.86c3.4,1.08,1.25,3.66-0.36,3.64c-2.51-0.03-10.86-1.4-11.56,5.61c-0.9,9.02,16.29,10.56,20.78-3.53
	c2.9-9.09-3.88-16.91-11.55-19.61c-8-2.83-19.06,1.63-22.24,5.36c-5.16,6.07-6.24,15.99-3.57,24.87
	c12.45,24.05,36.55,37.76,54.88,56.89c9.98,10.41,35.86,35.55,35.86,51.16l0.02,138.5c-0.01,25.15-53.54,31.71-69.2,54.17
	l-0.19,0.28l-0.37-0.06c-25.87-4.13-53.86-24.99-53.87-45.98L602.69,193.23L602.69,193.23z M850.57,145.85
	c6.32-0.72,7.47,4.53,8.31,8.23c0.9,3.85-0.79,11.85-12.6,11.69c-22.53-0.31-33.14-15.51-36.98-20.53l-1.68-2.04l-1.85,2.22
	c-3.55,4.26-15.72,15.54-31.63,27.41c-15.04,11.23-25.94,24.58-24.15,42.38c0,15.12,10.21,28.1,20.55,36.34
	c23.7,18.9,67.55,36.62,68.55,58.81c0.39,8.36-4.04,21.99-6.24,24.33c-1.3,1.38-3.27,2.54-3.52,2.69l-0.63,0.41l-0.52-0.43
	c-10.17-8.48-13.37-15.88-28.42-18.5c-19.94-3.49-42.51,0.15-54.13,13.49c-6.15,7.04-11.83,16.45-11.12,27.11
	c0.31,4.79,2.89,9.69,5.11,12.09c1.81,1.95,4.41,0.4,3.84-0.91c-0.4-0.91-4.85-8.68-4.16-14.99c0.88-8,12.23-26.33,37.31-11.67
	c9.18,5.37,27.52,24.72,30.3,28.55l0.66,0.69l0.44-0.57c14.74-23.16,32.36-34.26,42.62-38.86c6.5-2.92,25.94-25.69,18.75-56.29
	c-5.56-23.6-27.84-35.26-46.21-47.25c-19.79-10.95-36.81-19.67-41.38-36.32c-1.04-3.78-0.56-9.7,0.91-14.25
	c1.13-3.48,3.78-5.47,5.14-6.16l1.11-0.58l0.46,0.45c0.85,0.85,13.83,18.46,28.17,22.69c10.06,2.98,27.55-0.6,37.91-7.58
	c8.31-5.6,11.47-20.88,10.91-28.11c-0.51-6.57-1.43-11.33-5.97-15.25c-5.2-4.49-12.34-4.28-16.38-0.44
	c-2.72,2.6-2.44,6.83-0.52,8.76c2.1,2.1,5.34,2.62,8.4,1.58c1.9-0.66,0.88-3.1-0.43-2.72c-2.14,0.61-4.9,0.35-5.78-2.28
	C845.09,148.02,847.51,146.2,850.57,145.85L850.57,145.85z M1041.82,338.71c0,1.76,15.28,14.78,23.4,6.86
	c1.41-1.37,4.61-4.12,7.11-1.37c1.17,1.29,1.03,3.28-0.93,5.79c-10.64,13.62-23.15,24.53-40.02,23.11
	c-12.81-1.07-25.56-16.26-28.43-22.24c-2.65-5.47-12.91-5.6-13.37-8.87c-0.44-2.97,5.5-4.91,5.5-7.13V190.24
	c0-0.68-9.87-12.68-20.3-11.28c-2.9,0.39-6.25,2.74-7.76-0.27c-2.09-4.17,3.24-2.43,16.63-13.8c5.31-4.52,13.96-14.23,19.66-19.94
	l1.49-1.48l1.79,1.63c13.08,10.77,24.99,22.09,32.35,33.13c0.44,0.64,0.68,0.79,1.29,0.21c13.69-12.93,21.19-19.8,38.45-31.38
	l0.73-0.49l0.57,0.34c2.89,1.61,16.38,10.48,22.62,25.48c7.69,18.5-18.69,34.72-32.06,47.13c-7.12,5.32,8.32,20.83-4.8,17.04
	c-2.65-0.75-7.02-7.3-5.19-12.02c3.11-8.07,12.48-17.37,7.31-27.24c-3.77-7.18-10.99-14.4-16.89-10.63
	c-4.3,2.75-9.15,8.38-9.14,8.73V338.71L1041.82,338.71z M1171.94,342.92c-7.63-4.47-17.66-11.4-17.68-29.45l0.04-121.65
	c0,0.36,13.76-13.75,14.26-13.36c13.91,10.46,24.74,23.1,24.74,23.04l-0.17,139.27C1187.78,345.27,1178.2,345.6,1171.94,342.92
	L1171.94,342.92z M1237.58,341.69l0.21-146.44c0-4.22,6.14-6.04,8.23-7.04c1.2-0.57,2.8-4.59-0.89-5.35
	c-2.14-0.44-13.51,0.12-57.25-36.91l-1.7-1.42l-0.98,1.51c-14.95,23.2-71.98,34.4-71.98,65.2L1112.99,328
	c-0.04,22.8,11.86,37.16,26.98,44.23c14.25,3.55,27.37-2.97,38.23-8.9c4.43-2.41,14.76-9.83,14.96-9.66
	c10.67,8.48,20.03,21.03,36.23,18.89c17.39-2.31,20.48-7.96,30.17-18.01c1.53-1.6,2.89-4.52,3.81-6.19c1.14-2.05-2.6-5.91-4.42-4.36
	c-0.88,0.73-2.57,2.08-4.24,3.51C1246.77,354.35,1237.57,347.95,1237.58,341.69L1237.58,341.69z M2421.83,186.1
	c0-9.06-21.96-26.15-28.35-31.35l-0.4-0.33l-0.42,0.3c-2.87,2.03-7.19,6.58-7.19,9.29l0.1,148.08c0.02,9.38,13.96,25.89,29.19,30.26
	l0.78,0.22l0.6-0.19c2.42-0.77,5.68-3.33,5.68-6.81V186.1L2421.83,186.1z M2340.91,193.23c0-16.53,32.61-33.9,43.15-45.79l0.45-0.51
	l-0.37-0.5c-11.72-15.71-35.95-26.06-36.11-54.6c-0.12-20.49,7.11-39.16,23.12-50.73c9.78-8,29.02-7.96,39.15,0.88
	c6.68,5.82,7.71,15.75,5.32,23.11c-4.69,14.39-22.88,15.55-28.44,8.08c-4.34-5.86-3.65-11.84,0.8-15.44
	c4.46-3.6,10.41-3.11,14.33-1.86c3.4,1.08,1.25,3.66-0.36,3.64c-2.51-0.03-10.87-1.4-11.57,5.61c-0.91,9.02,16.3,10.56,20.79-3.53
	c2.89-9.09-3.88-16.91-11.56-19.61c-8.01-2.83-19.06,1.63-22.24,5.36c-5.16,6.07-6.24,15.99-3.57,24.87
	c12.45,24.05,36.55,37.76,54.89,56.89c9.98,10.41,35.86,35.55,35.86,51.16l0.01,138.5c0,25.15-53.55,31.71-69.2,54.17l-0.19,0.28
	l-0.37-0.06c-25.87-4.13-53.87-24.99-53.87-45.98L2340.91,193.23L2340.91,193.23z M2239.49,342.92
	c-7.63-4.47-17.66-11.4-17.68-29.45l0.04-121.65c0,0.36,13.76-13.75,14.26-13.36c13.91,10.46,24.74,23.1,24.74,23.04l-0.17,139.27
	C2255.33,345.27,2245.74,345.6,2239.49,342.92L2239.49,342.92z M2305.13,341.69l0.2-146.44c0-4.22,6.15-6.04,8.23-7.04
	c1.19-0.57,2.79-4.59-0.9-5.35c-2.12-0.44-13.5,0.12-57.24-36.91l-1.69-1.42l-0.97,1.51c-14.96,23.2-71.98,34.4-71.98,65.2
	L2180.53,328c-0.04,22.8,11.87,37.16,26.98,44.23c14.24,3.55,27.38-2.97,38.23-8.9c4.44-2.41,14.76-9.83,14.97-9.66
	c10.67,8.48,20.03,21.03,36.22,18.89c17.41-2.31,20.48-7.96,30.17-18.01c1.53-1.6,2.91-4.52,3.82-6.19c1.14-2.05-2.6-5.91-4.42-4.36
	c-0.86,0.73-2.57,2.08-4.23,3.51C2314.3,354.35,2305.12,347.95,2305.13,341.69L2305.13,341.69z M2145.71,345.17
	c-0.01,6.26,9.17,12.65,17.13,5.8c1.66-1.44,3.36-2.78,4.24-3.52c1.81-1.53,5.56,2.33,4.42,4.37c-0.92,1.67-2.3,4.6-3.81,6.19
	c-9.69,10.06-12.78,15.71-30.17,18.01c-10.95,1.45-36.15-8.35-36.17-43.47v-227.6c0-2.78-1-3.33-1-3.33
	c0.04,0.03-23.53-26.9-23.53-26.9l31.32-21.63c0,0,23.54,25.6,33.74,36.85c1.32,1.45,3.8,3.12,3.81,10.39L2145.71,345.17
	L2145.71,345.17z M1981.14,180.75c12.67,0,40.74-8.75,40.7-29.1l-0.07-64.1c0-15.65-19.98-17.38-40.62-17.57L1981.14,180.75
	L1981.14,180.75z M1968.24,331.58c2.75,0.02,5.7-0.09,8.85-0.35V69.96c-1.2-0.01-2.42-0.01-3.62-0.01c-1.81,0-3.53,0.09-5.21,0.22
	L1968.24,331.58L1968.24,331.58z M1964.17,331.43c-25.56-1.53-33.88-15.03-43.92-19.9c-8.31-4.05-22.94-8.01-29.67-9.26
	c-0.04-0.01,41.95-16.1,41.71-65.93l-0.04-148.76c0,0,11.03-13.6,31.96-16.91L1964.17,331.43L1964.17,331.43z M1950.69,2.38
	c-8.43,2.86-8.54,8.61-7.64,11.24c3.8,5.72,9.38,6.19,12.02,2.57c3.22-4.39,4.46-7,7.53-1.69c0,0.01,1,0.6,1.74,12.8v14.95
	c0,0.19-10.58,7.37-17.28,14.15c-4.57,4.66-14.45,16.12-16.49,18.38l-1.04,1.16l-1.85-1.28c-7.79-7.81-23.84-23.28-40.33-43.5
	c-2.36-2.9-5.71-2.27-8.68,0.72c-18.67,18.69-35.46,34.12-60.17,44.91c-3.66,1.59-0.37,7.01,2.12,6.04
	c11.59-4.45,20.9-9.58,30.79-9.62c18.56-0.1,32.05,14.37,32.05,14.24l0.01,213.56c0-0.06-15.12-1.76-32.94,3.09
	c-11.61,3.15-30.04,13.47-39.17,26.17c-6.89,9.6-8.87,24.9-7.12,37.35c2.68,15.07,14.53,27.38,28.78,30.07
	c19.59,1.69,27.5-4.62,31.56-12.52c6.36-12.33,1.33-29.88-14.75-29.14c-15.9,0.75-14.94,14.39-11.39,18.5
	c2.1,2.43,6.16,5.42,11.39,3.74c2.7-0.88,2.61-3.18-1.12-2.81c-5.03,0.5-7.11-4.7-7.11-7.85c0-4.44,5.39-7.57,9.81-7.11
	c14.49,1.51,14.11,18.7,2.69,28.44c-6.76,5.75-14.55,5.2-22.58,3.33c-9.17-2.13-19.24-18.31-18.35-32.65
	c0.55-8.86,6.01-17.06,13.31-21.36c9.15-5.39,24.93-4.44,35.61,0c30.24,15.16,60.48,47.97,101.38,29.35
	c19.61-10.68,11.46,15.17,25.73,21.73c7.27,3.36,14.7,1.53,17.87-3.11c1.85-2.73,0.96-9.01-1.75-10.67
	c-7.22-4.41-12.3,7.09-15.17,6.89c-1.63-0.11-3.61-2.55-5.31-5.98c-8.67-17.2,13.9-32.37,22.24-39.97
	c10.57-9.64,53.58-22.3,63.28-23.71c10.89-1.71,6.95-1.68,9.86-2.41c2.55-0.64,2.68-4.52-0.63-4.77
	c-12.29-0.94-9.12-3.01-9.15-13.91l-0.06-83.3c0-10.35-9.08-18.69-14.92-20.55c-8.41-2.69-18.4-2.15-21.4-2.45l-2.25,0.02l1.97-0.92
	c1.34-0.75,13.02-5.74,16.5-7.57c6.43-3.38,12.13-7.17,12.13-20.06V80.4c0-26.63-25.85-35.41-44.03-39.74
	c-24.43-5.82-50.31,0.53-50.31,0.36c0-3.51,0.8-21.11-1.71-28.42C1963.54,4.59,1955.56,0.72,1950.69,2.38L1950.69,2.38z
	 M1981.15,185.48h13.35c25.17,0,27.55,13.35,27.55,34.51l-0.25,76.77c0,0.19-10.65,15.48-21.1,24.57c-9.4,8.19-13.4,8.76-19.55,9.48
	V185.48L1981.15,185.48z M175.44,86.44c-3.28-2.59-6.12-4.9-8.8-6.81l-0.05,251.94c2.76,0.02,5.7-0.09,8.85-0.35L175.44,86.44
	L175.44,86.44z M130.55,87.43c0,0,15.52-13.96,21.9-13.61c3.68,0.19,6.86,1.32,10.09,3.15l0.01,254.46
	c-25.59-1.53-33.9-15.03-43.92-19.9c-8.32-4.05-22.95-8.01-29.67-9.26c-0.04-0.01,41.94-16.1,41.7-65.93L130.55,87.43L130.55,87.43z
	 M1531.33,186.08c0-9.07-21.96-26.16-28.37-31.35l-0.4-0.32l-0.42,0.3c-2.89,2.04-7.19,6.6-7.19,9.3l0.1,148.08
	c0.02,9.38,13.96,25.89,29.19,30.25l0.78,0.23l0.6-0.19c2.42-0.77,5.69-3.33,5.69-6.8V186.08L1531.33,186.08z M1450.4,193.2
	c0-16.53,32.61-33.89,43.14-45.79l0.45-0.52l-0.36-0.5c-11.72-15.71-35.96-26.05-36.11-54.6c-0.12-20.49,7.11-39.15,23.12-50.72
	c9.79-8,29.01-7.96,39.15,0.88c6.68,5.82,7.71,15.75,5.32,23.1c-4.69,14.38-22.88,15.55-28.44,8.07c-4.35-5.85-3.65-11.84,0.8-15.43
	c4.46-3.61,10.41-3.11,14.32-1.86c3.41,1.07,1.26,3.66-0.35,3.64c-2.51-0.02-10.86-1.39-11.57,5.61c-0.9,9.03,16.3,10.56,20.78-3.51
	c2.9-9.1-3.87-16.92-11.54-19.62c-8.01-2.83-19.07,1.63-22.24,5.37c-5.16,6.07-6.24,15.99-3.56,24.86
	c12.44,24.07,36.55,37.76,54.88,56.9c9.98,10.42,35.85,35.55,35.86,51.18l0.01,138.49c0,25.15-53.53,31.71-69.2,54.16l-0.19,0.28
	l-0.37-0.06c-25.87-4.13-53.86-24.99-53.86-45.99L1450.4,193.2L1450.4,193.2z M1698.28,145.83c6.33-0.72,7.46,4.53,8.32,8.23
	c0.89,3.85-0.81,11.85-12.62,11.69c-22.53-0.31-33.13-15.52-36.96-20.53l-1.68-2.04l-1.86,2.23c-3.54,4.25-15.72,15.53-31.63,27.41
	c-15.03,11.22-25.94,24.58-24.14,42.37c0,15.12,10.22,28.11,20.55,36.34c23.7,18.9,67.55,36.61,68.56,58.8
	c0.37,8.36-4.05,21.99-6.24,24.34c-1.3,1.38-3.26,2.52-3.51,2.69l-0.63,0.4l-0.53-0.44c-10.16-8.47-13.35-15.86-28.4-18.49
	c-19.95-3.49-42.52,0.16-54.13,13.49c-6.14,7.06-11.83,16.46-11.13,27.13c0.32,4.79,2.9,9.68,5.13,12.09
	c1.81,1.95,4.41,0.4,3.82-0.91c-0.39-0.91-4.85-8.69-4.16-15c0.87-8,12.23-26.31,37.32-11.65c9.17,5.37,27.52,24.72,30.31,28.55
	l0.65,0.69l0.45-0.58c14.73-23.14,32.36-34.24,42.62-38.85c6.5-2.92,25.95-25.69,18.74-56.29c-5.54-23.6-27.83-35.26-46.2-47.25
	c-19.79-10.95-36.81-19.67-41.39-36.32c-1.03-3.77-0.56-9.69,0.92-14.24c1.12-3.48,3.78-5.47,5.13-6.17l1.13-0.57l0.44,0.45
	c0.85,0.84,13.83,18.46,28.17,22.7c10.07,2.97,27.55-0.61,37.91-7.59c8.31-5.6,11.46-20.88,10.9-28.11
	c-0.51-6.57-1.42-11.33-5.96-15.26c-5.2-4.49-12.34-4.29-16.38-0.43c-2.72,2.6-2.43,6.83-0.52,8.75c2.1,2.1,5.34,2.63,8.4,1.58
	c1.9-0.65,0.89-3.09-0.43-2.71c-2.15,0.6-4.9,0.35-5.78-2.29C1692.79,148,1695.22,146.17,1698.28,145.83L1698.28,145.83z"/>
</svg>
